OpenSim_Sub11_CSPreOp_LCS.mot
version=1
nRows=53
nColumns=11
inDegrees=no
endheader
time	Bot_Shank	2nd_Bot_Shank	2nd_Top_Shank	Top_Shank	Bot_Thigh	Med_Thigh	Top_Thigh	BNOx	BNOy	BNOZ
9.25000000	8943.28514236	9372.72026601	9711.06726772	9145.03448759	10402.69110066	11232.03588366	11440.72610903	200.80243303	-67.32671921	118.55295382
9.26000000	8943.19363760	9374.20616469	9713.31928042	9148.69175916	10401.50695808	11232.03164537	11447.01635059	201.94457748	-67.11175196	115.50725957
9.27000000	8943.09755631	9375.03728993	9715.08119755	9152.03473964	10400.16962412	11232.01939106	11451.70881539	202.67275241	-67.05507835	112.41620714
9.28000000	8942.98822852	9374.94096182	9716.05319322	9154.12635209	10398.87863291	11231.99729685	11454.11900659	202.94564152	-67.13321074	109.84171274
9.29000000	8942.86418775	9373.80732373	9716.07216470	9154.36524892	10397.76911711	11231.96522274	11453.88023772	202.75080078	-67.32366681	108.18908314
9.30000000	8942.74537165	9372.01032614	9715.38126358	9153.14765660	10396.78484915	11231.92803212	11451.57015254	202.16157636	-67.60695138	107.39828131
9.31000000	8942.65567515	9370.01336804	9714.29875162	9151.05423769	10395.83422192	11231.89151343	11447.94098694	201.26717566	-67.96412157	107.32323533
9.32000000	8942.61899319	9368.27984843	9713.14289057	9148.66565475	10394.82562833	11231.86145514	11443.74497682	200.15680610	-68.37623449	107.81787326
9.33000000	8942.65922072	9367.27316628	9712.23194221	9146.56257033	10393.66746125	11231.84364568	11439.73435805	198.91967511	-68.82434723	108.73612320
9.34000000	8942.80025268	9367.45672059	9711.88416827	9145.32564700	10392.26811357	11231.84387350	11436.66136653	197.64499011	-69.28951692	109.93191320
9.35000000	8943.06598400	9369.29391035	9712.41783052	9145.53554731	10390.53597820	11231.86792704	11435.27823815	196.42195852	-69.75280066	111.25917135
9.36000000	8943.48030963	9373.24813453	9714.15119073	9147.77293383	10388.37944801	11231.92159477	11436.33720879	195.33978775	-70.19525555	112.57182573
9.37000000	8944.06712150	9379.78262440	9717.40238686	9152.61827975	10385.70696897	11232.01066194	11440.59022772	194.48766044	-70.59794361	113.72383740
9.38000000	8944.84632301	9389.13802422	9722.32530480	9160.40078045	10382.49741554	11232.13668808	11448.40888117	193.92186099	-70.94842352	114.61294324
9.39000000	8945.82596614	9400.89359134	9728.58577761	9170.70299345	10378.93893082	11232.28867652	11459.03455850	193.60092120	-71.25355797	115.26695401
9.40000000	8947.01191174	9414.50630285	9735.75940492	9182.96943439	10375.25834850	11232.45330914	11471.49969300	193.46529992	-71.52377869	115.73772912
9.41000000	8948.41002066	9429.43313582	9743.42178636	9196.64461895	10371.68250225	11232.61726784	11484.83671801	193.45545602	-71.76951737	116.07712800
9.42000000	8950.02615374	9445.13106736	9751.14852155	9211.17306279	10368.43822574	11232.76723449	11498.07806684	193.51184832	-72.00120575	116.33701007
9.43000000	8951.86617182	9461.05707454	9758.51521011	9225.99928156	10365.75235265	11232.88989098	11510.25617281	193.57493570	-72.22927551	116.56923474
9.44000000	8953.93593576	9476.66813444	9765.09745168	9240.56779092	10363.85171665	11232.97191920	11520.40346924	193.58517699	-72.46415839	116.82566144
9.45000000	8956.24129582	9491.42131828	9770.47096270	9254.32321795	10362.96310682	11233.00000536	11527.55271879	193.48304618	-72.71628323	117.15813655
9.46000000	8958.77406402	9504.89859130	9774.36647936	9266.85802657	10363.25412036	11232.96658869	11531.17373346	193.22908384	-72.99228310	117.60123208
9.47000000	8961.48433966	9517.05302448	9776.97535802	9278.20395785	10364.71647402	11232.88120261	11532.03495781	192.84345574	-73.28751245	118.13819142
9.48000000	8964.31450999	9527.90630051	9778.57411657	9288.47396845	10367.30936690	11232.75654104	11531.14493359	192.35735143	-73.59524046	118.74276811
9.49000000	8967.20696225	9537.48010207	9779.43927293	9297.78101500	10370.99199812	11232.60529788	11529.51220255	191.80196045	-73.90873632	119.38871571
9.50000000	8970.10408370	9545.79611186	9779.84734500	9306.23805416	10375.72356680	11232.44016704	11528.14530643	191.20847237	-74.22126922	120.04978775
9.51000000	8972.94826159	9552.87601258	9780.07485069	9313.95804258	10381.46327207	11232.27384242	11528.05278698	190.60807671	-74.52610836	120.69973778
9.52000000	8975.68188317	9558.74148691	9780.39830790	9321.05393690	10388.17031303	11232.11901792	11530.24318594	190.03196304	-74.81652292	121.31231934
9.53000000	8978.24734298	9563.41423539	9781.09417882	9327.63866545	10395.80380245	11231.98838468	11535.72471736	189.51131434	-75.08578335	121.86129292
9.54000000	8980.59672738	9566.93962513	9782.36497061	9333.78757674	10404.20823840	11231.89094367	11545.07073830	189.06859331	-75.32882461	122.32964416
9.55000000	8982.71092054	9569.43334527	9784.19344319	9339.46435598	10412.88755707	11231.82473112	11557.56248746	188.70035167	-75.54552752	122.72776994
9.56000000	8984.57613089	9571.02408644	9786.52172860	9344.61204352	10421.28273000	11231.78575602	11572.24231071	188.39835053	-75.73668732	123.07113506
9.57000000	8986.17856689	9571.84053924	9789.29195886	9349.17367976	10428.83472874	11231.77002740	11588.15255394	188.15435105	-75.90309927	123.37520432
9.58000000	8987.50443698	9572.01139429	9792.44626602	9353.09230505	10434.98452483	11231.77355426	11604.33556304	187.96011434	-76.04555860	123.65544251
9.59000000	8988.53994961	9571.66534220	9795.92678211	9356.31095976	10439.17308981	11231.79234561	11619.83368391	187.80740155	-76.16486055	123.92731445
9.60000000	8989.27131322	9570.93107359	9799.67563916	9358.77268427	10440.84139522	11231.82241045	11633.68926242	187.68797382	-76.26180038	124.20628492
9.61000000	8989.68473627	9569.93727907	9803.63496920	9360.42051895	10439.43041260	11231.85975779	11644.94464447	187.59359228	-76.33717332	124.50781872
9.62000000	8989.76642719	9568.81264924	9807.74690428	9361.19750417	10434.38111350	11231.90039664	11652.64217594	187.51601806	-76.39177462	124.84738066
9.63000000	8989.50259443	9567.68587474	9811.95357643	9361.04668030	10425.13446945	11231.94033601	11655.82420273	187.44701231	-76.42639951	125.24043553
9.64000000	8988.87944643	9566.68564616	9816.19711767	9359.91108772	10411.13145199	11231.97558490	11653.53307071	187.37833615	-76.44184325	125.70244814
9.65000000	8987.88321678	9565.94061871	9820.41965532	9357.73381699	10391.81345573	11232.00215341	11644.81163770	187.30175252	-76.43890210	126.24887567
9.66000000	8986.53347410	9565.53245885	9824.55704166	9354.52458432	10367.18327551	11232.01747957	11629.38208013	187.21139344	-76.41971883	126.88508228
9.67000000	8984.94883772	9565.40321231	9828.52648358	9350.49107484	10338.91183059	11232.02324439	11608.98507724	187.10843045	-76.39043730	127.58644205
9.68000000	8983.26623987	9565.46911112	9832.24174073	9345.87757511	10308.97845078	11232.02191337	11585.73449842	186.99533657	-76.35794109	128.32278434
9.69000000	8981.62261280	9565.64638732	9835.61657275	9340.92837170	10279.36246588	11232.01595197	11561.74421302	186.87458486	-76.32911375	129.06393852
9.70000000	8980.15488876	9565.85127294	9838.56473929	9335.88775114	10252.04320568	11232.00782569	11539.12809043	186.74864832	-76.31083886	129.77973395
9.71000000	8979	9566	9841	9331	10229	11232	11520	186.62000000	-76.31000000	130.44000000
9.72000000	8978.25885764	9566.02810399	9842.86409917	9326.47472007	10211.73572871	11231.99446421	11505.98958367	186.49051410	-76.33190904	131.02100807
9.73000000	8977.88828832	9565.94833424	9844.21071962	9322.38277410	10199.84747203	11231.99130299	11496.78957361	186.35966950	-76.37559104	131.52479771
9.74000000	8977.80909755	9565.79274354	9845.12152884	9318.76034008	10192.45586027	11231.99012480	11491.60847454	186.22634628	-76.43849936	131.95985047
9.75000000	8977.94209083	9565.59338466	9845.67819428	9315.64359599	10188.68152371	11231.99053813	11489.65479119	186.08942450	-76.51808738	132.33464792
9.76000000	8978.20807367	9565.38231038	9845.96238341	9313.06871982	10187.64509265	11231.99215148	11490.13702830	185.94778421	-76.61180845	132.65767165
9.77000000	8978.52785159	9565.19157350	9846.05576372	9311.07188956	10188.46719741	11231.99457332	11492.26369059	185.80030550	-76.71711595	132.93740321
